<?xml version="1.0" encoding="UTF-8"?>
<svg width="309px" height="359px" viewBox="0 0 309 359" version="1.1" xmlns="http://www.w3.org/2000/svg" xmlns:xlink="http://www.w3.org/1999/xlink">
    <title>FDD4F859-8B2C-43C2-868E-452399119AC6</title>
    <defs>
        <linearGradient x1="50.0321189%" y1="-0.607697502%" x2="50.0321189%" y2="98.4807562%" id="linearGradient-1">
            <stop stop-color="#343C5C" offset="0%"></stop>
            <stop stop-color="#32416E" stop-opacity="0" offset="100%"></stop>
        </linearGradient>
        <linearGradient x1="0.412986119%" y1="49.3087558%" x2="99.9808803%" y2="49.3087558%" id="linearGradient-2">
            <stop stop-color="#FFD44F" offset="0.289017%"></stop>
            <stop stop-color="#FFA607" offset="100%"></stop>
        </linearGradient>
        <linearGradient x1="0.500936867%" y1="50%" x2="100.068831%" y2="50%" id="linearGradient-3">
            <stop stop-color="#FFD44F" offset="0.289017%"></stop>
            <stop stop-color="#FFA607" offset="100%"></stop>
        </linearGradient>
        <linearGradient x1="0.447384521%" y1="50.6912442%" x2="100.007648%" y2="50.6912442%" id="linearGradient-4">
            <stop stop-color="#FFD44F" offset="0.289017%"></stop>
            <stop stop-color="#FFA607" offset="100%"></stop>
        </linearGradient>
        <linearGradient x1="-13.7%" y1="50%" x2="119.2%" y2="67.9858152%" id="linearGradient-5">
            <stop stop-color="#FBA5CB" offset="0%"></stop>
            <stop stop-color="#FFCCB3" offset="100%"></stop>
        </linearGradient>
        <linearGradient x1="-13.7502379%" y1="50%" x2="119.254576%" y2="68%" id="linearGradient-6">
            <stop stop-color="#FBA5CB" offset="0%"></stop>
            <stop stop-color="#FFCCB3" offset="100%"></stop>
        </linearGradient>
        <linearGradient x1="-69.9%" y1="47.1%" x2="129.6%" y2="47.1%" id="linearGradient-7">
            <stop stop-color="#A7A0DC" offset="0%"></stop>
            <stop stop-color="#7C12ED" offset="100%"></stop>
        </linearGradient>
        <linearGradient x1="-177.579342%" y1="100%" x2="100.039433%" y2="69.2%" id="linearGradient-8">
            <stop stop-color="#4A198A" offset="0%"></stop>
            <stop stop-color="#0A0717" offset="100%"></stop>
        </linearGradient>
        <linearGradient x1="33.4%" y1="852.5%" x2="33.4%" y2="-62%" id="linearGradient-9">
            <stop stop-color="#4A198A" offset="0%"></stop>
            <stop stop-color="#181134" offset="100%"></stop>
        </linearGradient>
        <linearGradient x1="68.4%" y1="-60.5128425%" x2="0%" y2="246.045386%" id="linearGradient-10">
            <stop stop-color="#858AFC" offset="0%"></stop>
            <stop stop-color="#B3B2FE" offset="53.8%"></stop>
            <stop stop-color="#F4CDFA" offset="100%"></stop>
        </linearGradient>
        <linearGradient x1="31.6%" y1="90.8%" x2="31.6%" y2="131.2%" id="linearGradient-11">
            <stop stop-color="#FFFFFF" offset="0%"></stop>
            <stop stop-color="#F7F7FD" offset="35.8%"></stop>
            <stop stop-color="#D1DBFF" offset="100%"></stop>
        </linearGradient>
        <linearGradient x1="147.7%" y1="56.1%" x2="-22.9%" y2="56.1%" id="linearGradient-12">
            <stop stop-color="#FBBBA5" offset="0%"></stop>
            <stop stop-color="#FDBFA1" offset="100%"></stop>
        </linearGradient>
        <linearGradient x1="58.2%" y1="96.3634348%" x2="140%" y2="64.788337%" id="linearGradient-13">
            <stop stop-color="#4A198A" offset="0%"></stop>
            <stop stop-color="#181134" offset="100%"></stop>
        </linearGradient>
        <linearGradient x1="33.4%" y1="852.5%" x2="33.4%" y2="-62%" id="linearGradient-14">
            <stop stop-color="#4A198A" offset="0%"></stop>
            <stop stop-color="#181134" offset="100%"></stop>
        </linearGradient>
        <linearGradient x1="0%" y1="15.6%" x2="163.3%" y2="15.6%" id="linearGradient-15">
            <stop stop-color="#82C8FF" offset="0%"></stop>
            <stop stop-color="#6140F1" offset="100%"></stop>
        </linearGradient>
        <linearGradient x1="58.206467%" y1="96.4%" x2="140.07098%" y2="64.8%" id="linearGradient-16">
            <stop stop-color="#4A198A" offset="0%"></stop>
            <stop stop-color="#181134" offset="100%"></stop>
        </linearGradient>
        <linearGradient x1="-135.7%" y1="56.1%" x2="129.5%" y2="56.1%" id="linearGradient-17">
            <stop stop-color="#384FC3" offset="0%"></stop>
            <stop stop-color="#82C8FF" offset="28.3%"></stop>
            <stop stop-color="#6140F1" offset="100%"></stop>
        </linearGradient>
        <linearGradient x1="95.3357265%" y1="6.1%" x2="-176.678632%" y2="25.3%" id="linearGradient-18">
            <stop stop-color="#4A198A" offset="0%"></stop>
            <stop stop-color="#181134" offset="100%"></stop>
        </linearGradient>
        <linearGradient x1="-120.3%" y1="56.1%" x2="164.1%" y2="56.1%" id="linearGradient-19">
            <stop stop-color="#82C8FF" offset="0%"></stop>
            <stop stop-color="#6140F1" offset="100%"></stop>
        </linearGradient>
        <linearGradient x1="95.3357265%" y1="6.1%" x2="-176.678632%" y2="25.3%" id="linearGradient-20">
            <stop stop-color="#4A198A" offset="0%"></stop>
            <stop stop-color="#181134" offset="100%"></stop>
        </linearGradient>
        <linearGradient x1="58.2%" y1="96.3634348%" x2="140%" y2="64.788337%" id="linearGradient-21">
            <stop stop-color="#4A198A" offset="0%"></stop>
            <stop stop-color="#181134" offset="100%"></stop>
        </linearGradient>
        <linearGradient x1="-303.7%" y1="70%" x2="125.4%" y2="70%" id="linearGradient-22">
            <stop stop-color="#82C8FF" offset="0%"></stop>
            <stop stop-color="#6140F1" offset="100%"></stop>
        </linearGradient>
        <linearGradient x1="-47.7%" y1="56.1%" x2="122.9%" y2="56.1%" id="linearGradient-23">
            <stop stop-color="#FBA5CB" offset="0%"></stop>
            <stop stop-color="#FFCCB3" offset="100%"></stop>
        </linearGradient>
        <linearGradient x1="251.758995%" y1="-49.2%" x2="11.4696364%" y2="83.9%" id="linearGradient-24">
            <stop stop-color="#384FC3" offset="0%"></stop>
            <stop stop-color="#82C8FF" offset="28.3%"></stop>
            <stop stop-color="#6140F1" offset="100%"></stop>
        </linearGradient>
        <linearGradient x1="151.179734%" y1="155.4%" x2="-83.4051289%" y2="-381.1%" id="linearGradient-25">
            <stop stop-color="#82C8FF" offset="0%"></stop>
            <stop stop-color="#6140F1" offset="100%"></stop>
        </linearGradient>
        <linearGradient x1="-47.7%" y1="43.9%" x2="122.9%" y2="43.9%" id="linearGradient-26">
            <stop stop-color="#FBA5CB" offset="0%"></stop>
            <stop stop-color="#FFCCB3" offset="100%"></stop>
        </linearGradient>
        <linearGradient x1="117.428136%" y1="-93.8%" x2="29.6489625%" y2="172.1%" id="linearGradient-27">
            <stop stop-color="#FF70DA" offset="0%"></stop>
            <stop stop-color="#FF4669" offset="100%"></stop>
        </linearGradient>
        <linearGradient x1="-0.681871386%" y1="50.0921569%" x2="100.064207%" y2="50.0921569%" id="linearGradient-28">
            <stop stop-color="#FFD44F" offset="0.289017%"></stop>
            <stop stop-color="#FFA607" offset="100%"></stop>
        </linearGradient>
        <linearGradient x1="57.3933543%" y1="-8.47662655%" x2="43.8112156%" y2="102.958165%" id="linearGradient-29">
            <stop stop-color="#FFD44F" offset="0.289017%"></stop>
            <stop stop-color="#FFA607" offset="100%"></stop>
        </linearGradient>
        <linearGradient x1="49.7499167%" y1="103.033471%" x2="49.7499167%" y2="-3.26706789%" id="linearGradient-30">
            <stop stop-color="#FFD44F" offset="0.289017%"></stop>
            <stop stop-color="#FF9807" offset="100%"></stop>
        </linearGradient>
        <linearGradient x1="30.6601077%" y1="35.2374883%" x2="56.5352988%" y2="66.0908359%" id="linearGradient-31">
            <stop stop-color="#FAA404" offset="0%"></stop>
            <stop stop-color="#FF7904" stop-opacity="0" offset="100%"></stop>
        </linearGradient>
        <linearGradient x1="73.9396999%" y1="99.5298858%" x2="27.5369082%" y2="21.7506156%" id="linearGradient-32">
            <stop stop-color="#FFE491" offset="0%"></stop>
            <stop stop-color="#FFFFFF" offset="100%"></stop>
        </linearGradient>
        <linearGradient x1="-47.7%" y1="43.9%" x2="122.9%" y2="43.9%" id="linearGradient-33">
            <stop stop-color="#FBA5CB" offset="0%"></stop>
            <stop stop-color="#FFCCB3" offset="100%"></stop>
        </linearGradient>
        <linearGradient x1="95.3%" y1="6.13459508%" x2="-176.5%" y2="25.3194647%" id="linearGradient-34">
            <stop stop-color="#4A198A" offset="0%"></stop>
            <stop stop-color="#181134" offset="100%"></stop>
        </linearGradient>
        <linearGradient x1="95.3%" y1="6.13459508%" x2="-176.5%" y2="25.3194647%" id="linearGradient-35">
            <stop stop-color="#4A198A" offset="0%"></stop>
            <stop stop-color="#181134" offset="100%"></stop>
        </linearGradient>
    </defs>
    <g id="Desktop" stroke="none" stroke-width="1" fill="none" fill-rule="evenodd">
        <g id="01-Personal-Loan-Mobile-Number_Empty" transform="translate(-111.000000, -316.000000)">
            <g id="Group-19" transform="translate(111.000000, 316.968261)">
                <g id="Group-8" transform="translate(0.000000, 77.031739)">
                    <g id="Group-15" transform="translate(40.402768, 0.000000)">
                        <g id="34-copy" transform="translate(49.219996, 0.000000)">
                            <path d="M126.302893,71.5065034 C131.407385,66.8478584 131.76618,58.9355566 127.098158,53.8332311 C122.433836,48.7309057 114.514475,48.3611719 109.406284,53.0198169 C104.301792,57.7154353 103.946697,65.6277371 108.611019,70.7300626 C113.275341,75.8323881 121.198401,76.1651484 126.302893,71.5065034 Z" id="Path" fill="#EAEEF9" fill-rule="nonzero"></path>
                            <path d="M127.471748,15.6397368 C129.620813,13.680148 129.768769,10.3525444 127.80465,8.20808881 C125.84053,6.06363318 122.507814,5.91573968 120.358749,7.87532846 C118.205985,9.83491723 118.058029,13.1625208 120.022148,15.3069764 C121.986268,17.4514321 125.322683,17.5993256 127.471748,15.6397368 Z" id="Path" fill="#EAEEF9" fill-rule="nonzero"></path>
                            <path d="M140.377236,259.553079 C140.377236,269.75773 132.139769,278.335552 121.594184,278.335552 L18.7830519,278.335552 C8.56666962,278.335552 0,270.09049 0,259.553079 L0,18.7824735 C0,8.57782254 8.23746685,0 18.7830519,0 L121.594184,0 C131.810566,0 140.377236,8.24506219 140.377236,18.7824735 L140.377236,259.553079 Z" id="Path" fill="#FFFFFF" fill-rule="nonzero"></path>
                            <path d="M121.594184,0 C131.810566,0 140.377236,8.24506219 140.377236,18.7824735 L140.377236,259.553079 C140.377236,269.75773 132.139769,278.335552 121.594184,278.335552 L18.7830519,278.335552 C8.56666962,278.335552 0,270.09049 0,259.553079 L0,18.7824735 C0,8.57782254 8.23746685,0 18.7830519,0 L121.594184,0 Z" id="Path" fill="#1C3754" fill-rule="nonzero"></path>
                            <path d="M131.152161,18.7824735 L131.152161,259.553079 C131.152161,263.50923 128.844043,266.79986 125.219113,268.130901 C124.231505,268.463662 123.243897,268.796422 122.25259,268.796422 L121.923387,268.796422 L18.7830519,268.796422 L18.4538492,268.796422 C17.7954437,268.796422 17.1370381,268.796422 16.1457309,268.463662 C12.1915989,267.465381 9.22507514,263.50923 9.22507514,259.220318 L9.22507514,18.7824735 C9.22507514,13.5322545 13.5121089,9.24334326 18.7830519,9.24334326 L33.6119718,9.24334326 C35.5871884,9.24334326 37.2369011,10.8701717 37.2369011,12.8667338 C37.2369011,16.8228847 40.2034249,19.7807546 44.1575569,19.7807546 L96.5488818,19.7807546 C100.506713,19.7807546 103.469538,16.8228847 103.469538,12.8667338 C103.469538,10.8701717 105.11925,9.24334326 107.094467,9.24334326 L121.923387,9.24334326 C126.865127,9.24334326 131.152161,13.5322545 131.152161,18.7824735 Z" id="Path" fill="#F2F6FF" fill-rule="nonzero"></path>
                            <path d="M116.181236,206.579449 L26.4326805,206.579449 C21.651236,206.579449 17.7105693,202.629611 17.7105693,197.833452 L17.7105693,85.2643409 C17.7105693,80.4681818 21.651236,76.5183436 26.4326805,76.5183436 L116.181236,76.5183436 C120.965236,76.5183436 124.903347,80.4681818 124.903347,85.2643409 L124.903347,197.833452 C124.903347,202.629611 120.965236,206.579449 116.181236,206.579449 Z" id="Path" stroke="#E4E8F5" stroke-width="0.9843" fill="#F5F7FD" fill-rule="nonzero" stroke-linecap="round" stroke-linejoin="round" stroke-dasharray="1.98"></path>
                            <path d="M122.488347,7.94565818 L122.488347,52.2399436 C122.488347,57.0361027 118.63896,60.9859409 113.962741,60.9859409 L26.2361756,60.9859409 C21.5624548,60.9859409 17.7105693,57.0361027 17.7105693,52.2399436 L17.7105693,8.22768 C18.260125,8.22768 18.5374008,8.22768 19.0869564,8.22768 L33.9374485,8.22768 C35.8608932,8.22768 37.2372803,9.63855545 37.2372803,11.6132191 C37.2372803,15.5630573 40.537112,18.9485964 44.3864995,18.9485964 L95.5376392,18.9485964 C99.3895246,18.9485964 102.689356,15.5630573 102.689356,11.6132191 C102.414579,9.63855545 103.788468,8.22768 105.71441,8.22768 L119.738071,8.22768 L119.738071,7.66363636 C120.83968,7.66363636 121.664014,7.66363636 122.488347,7.94565818 Z" id="Path" fill="#E1E7F8" fill-rule="nonzero"></path>
                            <path d="M124.903347,227.738749 L124.903347,267.502804 C124.060014,267.786358 123.21668,267.786358 122.08968,267.786358 L19.1186805,267.786358 C18.5564582,267.786358 17.9916805,267.786358 17.7105693,267.786358 L17.7105693,227.738749 C17.7105693,222.942845 21.651236,218.993263 26.4326805,218.993263 L116.181236,218.993263 C120.965236,218.993263 124.903347,222.942845 124.903347,227.738749 Z" id="Path" fill="#EAEEF9" fill-rule="nonzero"></path>
                            <rect id="Rectangle" fill="#1B1DC7" opacity="0.100000001" x="25.5555556" y="229.909091" width="20.4444444" height="20.4363636" rx="2"></rect>
                            <path d="M27.5555556,258.009091 L118.111111,258.009091 C119.215681,258.009091 120.111111,258.904521 120.111111,260.009091 L120.111111,268.227273 L120.111111,268.227273 L25.5555556,268.227273 L25.5555556,260.009091 C25.5555556,258.904521 26.4509861,258.009091 27.5555556,258.009091 Z" id="Rectangle" fill="#1B1DC7" opacity="0.200000003"></path>
                            <rect id="Rectangle" fill="#1B1DC7" opacity="0.100000001" x="53.6666667" y="229.909091" width="61.3333333" height="5.10909091" rx="2"></rect>
                            <rect id="Rectangle" fill="#1B1DC7" opacity="0.100000001" x="53.6666667" y="240.127273" width="30.6666667" height="5.10909091" rx="2"></rect>
                            <path d="M79.0863398,12.5339735 L65.574231,12.5339735 C64.2574199,12.5339735 63.2698117,11.5356924 63.2698117,10.204651 C63.2698117,8.9105829 64.2574199,7.91230183 65.574231,7.91230183 L79.0863398,7.91230183 C80.4031509,7.91230183 81.3907592,8.9105829 81.3907592,10.204651 C81.0615564,11.5356924 80.0739481,12.5339735 79.0863398,12.5339735 Z" id="Path" fill="#2D5887" fill-rule="nonzero"></path>
                            <path d="M57.3367641,12.5339735 L56.3491558,12.5339735 C55.0286459,12.5339735 54.0410376,11.5356924 54.0410376,10.204651 C54.0410376,8.9105829 55.0286459,7.91230183 56.3491558,7.91230183 L57.3367641,7.91230183 C58.6535752,7.91230183 59.6448824,8.9105829 59.6448824,10.204651 C59.6448824,11.5356924 58.6535752,12.5339735 57.3367641,12.5339735 Z" id="Path" fill="#2D5887" fill-rule="nonzero"></path>
                        </g>
                        <g id="Group-14" transform="translate(61.309091, 140.500000) rotate(90.000000) translate(-61.309091, -140.500000) translate(-19.190909, 79.190909)" fill-rule="nonzero">
                            <path d="M147.490006,1.13200603 L147.490006,119.2192 C147.490006,121.201693 146.080499,122.618182 144.112508,122.618182 L19.1391576,122.618182 C17.1711664,122.618182 15.7616592,121.201693 15.7616592,119.2192 L15.7616592,0.566003014 C16.6067725,0.28448319 17.4518858,0.28448319 18.2969992,0.28448319 C18.5777186,0.28448319 18.8584381,0.28448319 19.422832,0.28448319 L89.2244654,0.28448319 C90.0695788,0.28448319 90.9146921,0 91.7598055,0 C92.6019638,0 93.1663577,0 93.7277966,0.28448319 L142.141562,0.28448319 C143.828834,0.28448319 145.79978,0.566003014 147.490006,1.13200603 Z" id="Path" fill="#96E3C1"></path>
                            <path d="M139.325502,0.28448319 L139.325502,111.007712 C139.325502,112.990204 137.91895,114.406693 135.948004,114.406693 L27.3036616,114.406693 C25.3327154,114.406693 23.9261632,112.990204 23.9261632,111.007712 L23.9261632,0.28448319 L89.2244654,0.28448319 C90.0695788,0.28448319 90.9146921,0 91.7598055,0 C92.6019638,0 93.1663577,0 93.7277966,0.28448319 L139.325502,0.28448319 Z" id="Path" fill="#1FC07C"></path>
                            <path d="M118.215399,0.281519824 C120.186345,3.11449826 121.876572,6.22899652 122.71873,9.62797798 C123.283124,12.1764732 123.844563,14.4434486 123.844563,17.2734637 C123.844563,17.5579469 123.844563,17.8394667 123.844563,17.8394667 C123.283124,36.2478999 104.705405,51.2573515 81.9080297,51.2573515 C59.1076994,51.2573515 40.5329357,36.2478999 39.9685418,17.8394667 C39.9685418,17.5579469 39.9685418,17.2734637 39.9685418,17.2734637 C39.9685418,14.7249685 40.2492613,12.1764732 41.0943746,9.62797798 C41.9394879,6.22899652 43.6267597,3.11449826 45.5977058,0.281519824 L32.6521061,0.281519824 L32.6521061,86.0887621 C37.9975957,86.0887621 43.0653207,88.0712544 46.7235386,92.0332755 C50.3817564,95.7167401 52.633422,100.813731 52.633422,106.192241 L111.741121,106.192241 C111.741121,100.813731 113.712068,95.7167401 117.65396,92.0332755 C121.312178,88.3527742 126.379903,86.0887621 131.725392,86.0887621 L131.725392,0.281519824 L118.215399,0.281519824 Z" id="Path" fill="#96E3C1"></path>
                            <path d="M96.6387532,47.3380415 C82.5970408,31.2590418 75.5761846,23.1007901 75.5761846,22.8632864 L75.5761846,22.8632864 L75.5761846,22.7920353 C78.6803973,22.7920353 81.9301201,21.9963979 85.3253528,20.4051232 C87.1442274,19.6926121 89.0479829,18.136963 91.0366192,15.7381757 C92.5402223,13.3631388 93.3647788,11.3324823 93.5102888,9.64620612 L93.5102888,9.64620612 L99.9854826,9.64620612 C100.033986,9.64620612 101.173814,8.00743066 103.404967,4.72987976 C103.404967,4.65862865 103.344338,4.61112791 103.223079,4.58737755 L103.223079,4.58737755 L93.2556463,4.58737755 C92.7948647,2.47359472 91.9218049,0.680441866 90.6364668,-0.792081004 L90.6364668,-0.792081004 L99.9854826,-0.792081004 C100.252251,-1.00583432 101.416331,-2.66836014 103.477722,-5.77965847 L103.477722,-5.77965847 L103.477722,-5.85090957 L68.4825734,-5.85090957 C68.4098184,-5.85090957 67.2578644,-4.22400931 65.0267115,-0.97020877 L65.0267115,-0.97020877 L65.0267115,-0.792081004 L74.2665948,-0.792081004 C75.8187012,-0.792081004 77.5648209,-0.483326208 79.5049538,0.134183382 C82.22114,1.17919961 84.0521405,2.6398473 84.9979553,4.51612644 L84.9979553,4.51612644 L84.9979553,4.58737755 L68.4825734,4.58737755 C68.4340701,4.58737755 67.2578644,6.226153 64.9539565,9.5037039 C64.9539565,9.59870538 65.0024599,9.64620612 65.0994665,9.64620612 L65.0994665,9.64620612 L85.9073927,9.64620612 C85.9073927,10.4062179 85.7618827,11.1424794 85.4708627,11.8549904 C83.6034848,16.723816 78.8380331,19.1582288 71.1745079,19.1582288 C69.5496465,19.1582288 68.1309243,19.0751026 66.9183412,18.90885 L66.9183412,18.90885 L66.8455862,19.0869777 L66.8455862,23.8251763 C66.8455862,23.8964274 73.6845549,31.7340492 87.3624924,47.3380415 L87.3624924,47.3380415 L96.6387532,47.3380415 Z" id="`" fill="#96E3C1" transform="translate(84.215839, 20.743566) rotate(-90.000000) translate(-84.215839, -20.743566) "></path>
                            <path d="M161,17.8394667 L0,17.8394667 C0.845113334,9.06197496 7.31939066,2.26697542 15.7616592,0.566003014 C16.6067725,0.28448319 17.4518858,0.28448319 18.2969992,0.28448319 C18.5777186,0.28448319 18.8584381,0.28448319 19.422832,0.28448319 L142.141562,0.28448319 C144.109553,0.28448319 146.080499,0.566003014 147.770726,1.13200603 C148.615839,1.41648922 149.457998,1.69800904 150.303111,1.98249223 C156.212994,5.0969905 160.435606,11.0444672 161,17.8394667 Z" id="Path" fill="url(#linearGradient-1)" opacity="0.300000012"></path>
                        </g>
                    </g>
                    <g id="Group-7" transform="translate(0.000000, 237.961021)" fill-rule="nonzero">
                        <path d="M84.3362357,30.5953488 L84.3362357,40.1197005 C84.3362357,41.4244062 83.5719174,42.4355531 82.2980536,42.4355531 L2.03818213,42.4355531 C1.01909107,42.4355531 0,41.4244062 0,40.1197005 L0,30.5953488 C0,29.3232607 0.7643183,28.2794962 2.03818213,28.2794962 L82.2980536,28.2794962 C83.5719174,28.2794962 84.3362357,29.3232607 84.3362357,30.5953488 Z" id="Path" fill="url(#linearGradient-2)"></path>
                        <polygon id="Path" fill="#FFFFFF" opacity="0.5" points="22.1652307 28.2794962 19.3627303 42.1746119 7.89795577 42.1746119 10.7004562 28.2794962"></polygon>
                        <polygon id="Path" fill="#FFFFFF" opacity="0.5" points="60.1328229 28.2794962 57.3270975 42.1746119 50.7030055 42.1746119 53.505506 28.2794962"></polygon>
                        <polygon id="Path" fill="#FFFFFF" opacity="0.5" points="26.7543655 28.2794962 23.951865 42.1746119 21.1493646 42.1746119 23.951865 28.2794962"></polygon>
                        <polygon id="Path" fill="#4F3500" opacity="0.1" points="84.3362357 40.6415827 0.254772767 40.6415827 0.254772767 42.1746119 84.3362357 42.1746119"></polygon>
                        <path d="M85.8648723,16.4719095 L85.8648723,25.9962612 C85.8648723,27.2683493 85.100554,28.3121138 83.8266902,28.3121138 L3.56681873,28.3121138 C2.54772767,28.3121138 1.5286366,27.2683493 1.5286366,25.9962612 L1.5286366,16.4719095 C1.5286366,15.1672038 2.2929549,14.1560569 3.56681873,14.1560569 L83.8266902,14.1560569 C85.100554,14.1560569 85.8648723,15.1672038 85.8648723,16.4719095 Z" id="Path" fill="url(#linearGradient-3)"></path>
                        <polygon id="Path" fill="#FFFFFF" opacity="0.5" points="23.6970923 14.1560569 20.8945918 28.3121138 9.42659237 28.3121138 12.2290928 14.1560569"></polygon>
                        <polygon id="Path" fill="#FFFFFF" opacity="0.5" points="61.9162322 14.1560569 58.8557341 28.3121138 52.2316421 28.3121138 55.0341426 14.1560569"></polygon>
                        <polygon id="Path" fill="#FFFFFF" opacity="0.5" points="28.5377748 14.1560569 25.7352744 28.3121138 22.6780012 28.3121138 25.4805016 14.1560569"></polygon>
                        <polygon id="Path" fill="#4F3500" opacity="0.1" points="86.1196451 26.746467 2.03818213 26.746467 2.03818213 28.2794962 86.1196451 28.2794962"></polygon>
                        <path d="M102.173554,2.31585263 L102.173554,11.8402043 C102.173554,13.1122923 101.409236,14.1560569 100.135372,14.1560569 L19.8722758,14.1560569 C18.8531847,14.1560569 17.8340937,13.1122923 17.8340937,11.8402043 L17.8340937,2.31585263 C17.8340937,1.04376456 18.598412,0 19.8722758,0 L100.135372,0 C101.409236,0.260941141 102.173554,1.30470571 102.173554,2.31585263 Z" id="Path" fill="url(#linearGradient-4)"></path>
                        <polygon id="Path" fill="#FFFFFF" opacity="0.5" points="57.5818702 0.260941141 54.7793698 14.1560569 43.3145953 14.1560569 46.1170957 0.260941141"></polygon>
                        <polygon id="Path" fill="#FFFFFF" opacity="0.5" points="95.5462374 0.260941141 92.743737 14.1560569 86.1196451 14.1560569 88.9221455 0.260941141"></polygon>
                        <polygon id="Path" fill="#FFFFFF" opacity="0.5" points="62.171005 0.260941141 59.3685046 14.1560569 56.5627792 14.1560569 59.3685046 0.260941141"></polygon>
                        <polygon id="Path" fill="#4F3500" opacity="0.1" points="102.173554 12.6230277 18.0888664 12.6230277 18.0888664 14.1560569 102.173554 14.1560569"></polygon>
                    </g>
                </g>
                <g id="Group-2" transform="translate(98.044322, 0.000000)">
                    <path d="M156.376969,324.048534 L158.543944,352.607909 L127.432604,352.607909 C127.432604,352.607909 128.844471,348.248358 132.350097,347.021654 C135.855723,345.79495 143.146726,346.584716 145.189125,338.327675 C146.399824,333.66753 146.957725,328.861985 146.846867,324.048534 L156.376969,324.048534 Z" id="Path_9-2" fill="url(#linearGradient-5)" fill-rule="nonzero"></path>
                    <path d="M184.239485,322.376153 L186.61518,352.607909 L210.363394,352.607909 C210.363394,352.607909 208.978846,347.349357 205.612003,346.381539 C202.106702,345.348618 199.13186,343.009957 197.301439,339.84822 C195.125722,336.372377 192.579553,322.376153 192.579553,322.376153 L184.239485,322.376153 Z" id="Path_10-2" fill="url(#linearGradient-6)" fill-rule="nonzero"></path>
                    <path d="M143.855938,146.358632 C143.855938,146.358632 126.378903,163.712259 128.669362,194.107868 C130.959821,224.503476 143.855938,262.335377 143.855938,277.642416 C143.855938,292.949455 145.295125,325.653189 145.295125,325.653189 L157.808505,325.653189 C157.808505,325.653189 162.19928,280.353618 160.003893,271.95785 C157.808505,263.562081 160.003893,182.463068 160.003893,182.463068 C160.003893,182.463068 172.953291,263.152452 174.624146,269.767697 C176.295001,276.382942 183.086606,325.653189 183.086606,325.653189 L194.972733,324.451609 C194.972733,324.451609 194.9323,278.876766 190.527319,264.580147 C186.122338,250.283528 186.830457,234.821376 186.830457,230.151599 C186.830457,225.481822 196.129983,186.160365 190.527319,167.83299 C184.924655,149.505616 174.624146,146.358632 174.624146,146.358632 L143.855938,146.358632 Z" id="Path_2" fill="url(#linearGradient-7)" fill-rule="nonzero"></path>
                    <path d="M178.377506,154.223954 L179.306726,157.191886 L180.048595,159.637408 L180.620873,161.582061 L181.39977,164.33837 L182.079842,166.894405 L182.476431,168.483018 L182.826262,169.976399 C182.880608,170.217222 182.932958,170.453972 182.983289,170.686599 L183.260859,172.032465 C183.555981,173.543943 183.749854,174.848285 183.834372,175.927705 L183.90514,177.326875 L183.968804,179.647396 L184.116083,191.44899 L184.311948,213.472581 L184.452806,224.146537 L184.65454,234.371575 L184.774575,238.777789 L184.908383,242.705513 L185.056708,246.149031 L185.220297,249.102629 L185.36266,251.108924 L185.51565,252.795086 L185.637597,253.84786 L185.722415,254.448144 L185.810105,254.966748 L185.900714,255.403308 L185.99429,255.757457 C186.724944,258.160439 187.411554,261.04471 188.055853,264.364312 L188.43737,266.407946 L188.808815,268.553853 L189.170273,270.799828 L189.521826,273.143664 C189.579598,273.542336 189.63696,273.944994 189.693914,274.351591 L190.030767,276.838084 C190.086099,277.260257 190.141027,277.686277 190.195552,278.116099 L190.517891,280.740284 L190.830659,283.453508 L191.133939,286.253564 C192.016394,294.65574 192.722451,303.655718 193.269033,312.655367 L193.531036,317.201772 L193.89162,324.657664 L192.511065,324.710894 L192.364237,321.420983 L192.151484,317.2766 L191.889991,312.739055 C191.344544,303.758102 190.640005,294.777479 189.759909,286.39776 L189.458518,283.615067 C189.407507,283.158433 189.356105,282.705406 189.304312,282.256033 L188.988852,279.604035 L188.663961,277.042061 C188.609024,276.622696 188.553692,276.207178 188.497965,275.795556 L188.158845,273.37296 L187.810186,271.046175 L187.451946,268.817519 C187.330931,268.091245 187.208311,267.381712 187.084081,266.689306 L186.70655,264.663851 C186.132981,261.703895 185.526642,259.098564 184.886884,256.88302 L184.62202,255.9818 L184.523882,255.567443 L184.429167,255.07323 L184.337805,254.499293 L184.206901,253.489203 L184.123624,252.716547 L184.004525,251.409006 L183.856225,249.389014 L183.71942,247.053887 L183.593563,244.404698 L183.398004,239.016133 L183.188636,230.688779 L183.020807,220.798642 L182.852996,205.590273 L182.65153,183.56005 L182.562044,178.596466 L182.515101,177.130122 L182.48418,176.44864 C182.469662,176.171234 182.446183,175.874689 182.413934,175.559491 L182.291078,174.558423 L182.116774,173.448352 L181.892184,172.232194 C181.850626,172.020822 181.807021,171.805152 181.761394,171.585243 L181.463552,170.215421 L181.118327,168.7468 L180.726882,167.182296 L180.290378,165.524825 L179.809977,163.777302 L179.28684,161.942643 L178.424547,159.033653 L177.986223,157.597977 L177.060811,154.642218 L178.377506,154.223954 Z" id="Path_32" fill="#FFFFFF" fill-rule="nonzero"></path>
                    <polygon id="Path_33" fill="url(#linearGradient-8)" fill-rule="nonzero" opacity="0.335" points="160.003893 182.468529 148.686009 179.8469 159.67606 192.094279"></polygon>
                    <path d="M154.885465,181.607349 L156.266462,181.647497 L156.042231,190.012362 L155.880125,196.6429 L155.661735,206.533143 L155.495696,215.163837 L155.360639,223.518731 L155.276235,230.04736 L155.21011,237.251714 L155.181468,243.849531 L155.200296,251.287867 L155.256418,256.183146 L155.349386,260.413177 L155.43218,262.847898 L155.531868,264.963377 L155.588112,265.898455 L155.680551,267.144427 L155.782755,268.198891 L155.894811,269.057869 L155.975032,269.519952 C155.988771,269.589513 156.002696,269.655331 156.016807,269.717381 L156.103702,270.044278 C156.118558,270.09116 156.1336,270.134226 156.14883,270.17345 L156.195081,270.279576 C156.243993,270.378367 156.291231,270.492266 156.33682,270.621101 L156.46866,271.052242 C156.489817,271.131509 156.510567,271.214468 156.530913,271.301096 L156.648176,271.86473 L156.755899,272.515407 C156.773067,272.63105 156.789842,272.750276 156.806229,272.873065 L156.899916,273.652376 L156.984424,274.516157 L157.059899,275.463378 L157.156487,277.03841 L157.210008,278.18973 L157.274342,280.066085 L157.319971,282.118603 L157.352555,285.123322 L157.353906,288.426811 L157.325177,292.020836 L157.228206,297.93862 L157.176668,300.270195 L157.050615,305.06155 L156.896349,309.992379 L156.62589,317.372538 L156.265935,325.686809 L154.885992,325.61957 L155.119167,320.40235 L155.428843,312.449054 L155.595903,307.469255 L155.736231,302.610345 C155.757229,301.812705 155.776993,301.02168 155.795461,300.238059 L155.903575,294.827943 L155.956871,290.493933 L155.970927,287.806823 L155.962374,284.475978 L155.933276,282.078171 L155.902781,280.592898 L155.840187,278.540414 L155.757122,276.705077 L155.653308,275.094351 L155.572432,274.149005 L155.482127,273.309015 L155.38231,272.576593 C155.27771,271.898693 155.158716,271.385463 155.024958,271.046856 L154.956847,270.892151 C154.919517,270.816753 154.883162,270.726075 154.847771,270.620247 L154.74448,270.257448 L154.646909,269.80454 L154.554995,269.26231 L154.468672,268.631544 L154.349532,267.521113 L154.242609,266.215902 L154.178008,265.238863 L154.039417,262.427854 L153.951579,259.806601 L153.883657,256.861104 L153.825976,252.732853 L153.805499,250.022554 L153.795354,247.140489 L153.804794,240.961621 L153.854057,233.914741 L153.941646,226.210742 L154.065668,217.960532 L154.221843,209.408928 L154.445858,198.900376 L154.767538,185.886367 L154.885465,181.607349 Z" id="Path_34" fill="#FFFFFF" fill-rule="nonzero"></path>
                    <path d="M175.04752,144.870159 C175.352769,145.626791 175.663117,146.414372 175.978565,147.232903 L143.293627,147.232903 L143.781006,146.049892 L143.781006,146.049892 L144.277126,144.870159 L175.04752,144.870159 Z" id="Path-7" fill="url(#linearGradient-9)" fill-rule="nonzero"></path>
                    <path d="M155.49182,143.956958 L157.677372,143.956958 C158.88442,143.956958 159.862925,144.935078 159.862925,146.141649 C159.862925,147.348221 158.88442,148.326341 157.677372,148.326341 L155.49182,148.326341 C154.284772,148.326341 153.306267,147.348221 153.306267,146.141649 C153.306267,144.935078 154.284772,143.956958 155.49182,143.956958 Z" id="Rectangle-32" fill="url(#linearGradient-10)" fill-rule="nonzero"></path>
                    <path d="M143.858124,144.870159 C143.858124,144.870159 144.890797,144.099541 139.090341,123.202955 C135.423634,109.993365 139.090341,86.6130191 139.090341,86.6130191 L181.125072,86.6130191 C181.125072,86.6130191 181.28426,110.806031 180.441328,120.22693 C179.598396,129.647829 174.623054,144.870159 174.623054,144.870159 L143.858124,144.870159 Z" id="Path_3" fill="url(#linearGradient-11)" fill-rule="nonzero"></path>
                    <g id="Group_31" transform="translate(137.099137, 42.477038)">
                        <path d="M34.7941619,8.82372494 C34.7941619,8.82372494 46.8212573,21.7286957 42.3430602,33.1710158 C39.6833574,40.3691572 39.2025817,48.1907459 40.9606982,55.6602268 C40.9606982,55.6602268 33.0817815,51.1411931 30.3607686,45.460996 C25.6585524,35.6746719 34.7941619,8.82372494 34.7941619,8.82372494 Z" id="Path_14" fill="#15273B" fill-rule="nonzero"></path>
                        <path d="M3.88170723,22.5960181 C3.88170723,22.5960181 -2.38645736,15.9174172 1.00770568,9.05093282 C4.40186872,2.18444844 13.7866312,2.41384101 13.7866312,2.41384101 C13.7866312,2.41384101 23.7451012,-3.01730126 30.3804386,2.41384101 C43.8838747,13.4683784 26.0246324,34.8717979 26.0246324,34.8717979 L3.88170723,22.5960181 Z" id="Path-8" fill="#1C3754" fill-rule="nonzero"></path>
                        <path d="M14.7668515,44.7498791 L14.7668515,38.1411882 C11.7742023,38.004488 9.02774132,36.4444016 7.37859123,33.9443965 C4.34176603,29.6230773 5.14167825,18.363179 5.14167825,18.363179 C7.70422399,18.0393406 10.1765136,17.2082657 12.4141042,15.9185095 C14.1758681,14.8082772 15.5407596,13.168988 16.3131299,11.235624 C17.2759755,13.9180025 18.5994448,16.4569598 20.2471244,18.7826397 C22.6905721,22.0039668 24.7690325,20.4735907 24.7690325,23.1410986 L24.7690325,26.9304454 L28.2986998,21.3485595 C28.2986998,21.3485595 32.4337652,20.983716 32.4337652,24.8200338 C32.4337652,29.2484028 26.2726926,29.1894161 26.2726926,29.1894161 L25.7263045,44.6177052 C24.1498498,45.8736517 22.2482179,46.6549194 20.2438461,46.8701218 C18.2515057,46.707566 16.3490446,45.9710892 14.7668515,44.7498791 Z" id="Path_13" fill="url(#linearGradient-12)" fill-rule="nonzero"></path>
                        <path d="M26.1382812,29.1850467 C26.1382812,29.1850467 23.9177598,38.1248031 14.7679443,39.3373067 L14.7679443,38.1422806 C17.2069215,38.0163698 19.5506312,37.1553426 21.4907038,35.6724872 C23.1276826,34.4752764 24.7067443,31.9639739 26.1382812,29.1850467 Z" id="Path-9" fill="url(#linearGradient-13)" fill-rule="nonzero" opacity="0.206"></path>
                        <path d="M13.2203269,30.1251689 C13.3823024,30.0049276 13.6110809,30.0387643 13.731318,30.2007453 C13.8515552,30.3627262 13.8177196,30.5915125 13.6557442,30.7117538 C12.8635703,31.2998181 11.9460276,31.6965211 10.976652,31.870492 C10.5377288,31.9513961 10.0931658,31.9979528 9.64700475,32.0097387 C9.44535,32.0150657 9.27755832,31.855905 9.27223153,31.6542434 C9.26690474,31.4525818 9.42606,31.2847844 9.62771475,31.2794574 C10.0359166,31.2686742 10.4426564,31.2260786 10.8459243,31.1517506 C11.7060083,30.9973903 12.5186881,30.6460252 13.2203269,30.1251689 Z" id="Path_19" fill="#EE825D" fill-rule="nonzero"></path>
                        <path d="M12.0754091,32.5563751 C12.2515048,32.4568095 12.4752698,32.5183253 12.5752023,32.6937746 C12.6751348,32.869224 12.6133923,33.0921677 12.4372966,33.1917333 C12.2497031,33.2977999 12.0476644,33.3762044 11.8170123,33.4285963 C11.6101576,33.4639098 11.398781,33.4639098 11.1919262,33.4285963 C10.9923594,33.394527 10.8582989,33.2057214 10.8924937,33.0068871 C10.9266886,32.8080528 11.1161898,32.6744844 11.3157566,32.7085537 C11.4406549,32.7298759 11.5682836,32.7298759 11.6727078,32.7126502 C11.8138173,32.6802256 11.9494623,32.6275862 12.0754091,32.5563751 Z" id="Path_82" fill="#F1927E" fill-rule="nonzero"></path>
                        <ellipse id="Oval-8" fill="url(#linearGradient-14)" fill-rule="nonzero" cx="8.51507854" cy="23.2514255" rx="1" ry="1.09234559"></ellipse>
                        <path d="M8.31688592,18.113004 C8.67503943,18.1436571 9.0209185,18.2578923 9.32653035,18.4464643 C9.55604744,18.5880834 9.62687984,18.8882658 9.48473895,19.1169404 C9.34259806,19.345615 9.04130974,19.4161875 8.81179265,19.2745683 C8.636661,19.1665067 8.43845412,19.1010439 8.31688592,19.0834781 C8.11164515,19.1010439 7.91343826,19.1665067 7.73830662,19.2745683 C7.50878953,19.4161875 7.2075012,19.345615 7.06536031,19.1169404 C6.92321942,18.8882658 6.99405183,18.5880834 7.22356892,18.4464643 C7.52918077,18.2578923 7.87505984,18.1436571 8.31688592,18.113004 Z" id="Path_18-3" fill="#292C3A" fill-rule="nonzero"></path>
                        <ellipse id="Oval-9" fill="url(#linearGradient-14)" fill-rule="nonzero" cx="15.0717361" cy="23.2514255" rx="1" ry="1.09234559"></ellipse>
                        <path d="M15.1183253,18.7902583 C15.4764788,18.8209114 15.8223579,18.9351466 16.1279697,19.1237185 C16.3574868,19.2653377 16.4283192,19.5655201 16.2861783,19.7941947 C16.1440375,20.0228693 15.8427491,20.0934417 15.613232,19.9518226 C15.4381004,19.8437609 15.2398935,19.7782982 15.1183253,19.7607323 C14.9130845,19.7782982 14.7148777,19.8437609 14.539746,19.9518226 C14.3102289,20.0934417 14.0089406,20.0228693 13.8667997,19.7941947 C13.7246588,19.5655201 13.7954912,19.2653377 14.0250083,19.1237185 C14.3306202,18.9351466 14.6764992,18.8209114 15.1183253,18.7902583 Z" id="Path_18-4" fill="#292C3A" fill-rule="nonzero"></path>
                        <g id="Group_13" transform="translate(3.597585, 19.974389)">
                            <g id="Oval-10">
                                <path d="M3.27832876,6.55407354 C5.08889974,6.55407354 6.55665751,5.0868942 6.55665751,3.27703677 C6.55665751,1.46717934 5.08889974,0 3.27832876,0 C1.46775778,0 0,1.46717934 0,3.27703677 C0,5.0868942 1.46775778,6.55407354 3.27832876,6.55407354 Z" id="Path"></path>
                                <path d="M3.27832876,6.00790075 C4.7847208,6.00790075 6.01026939,4.78283515 6.01026939,3.27703677 C6.01026939,1.77123839 4.7847208,0.546172795 3.27832876,0.546172795 C1.77193671,0.546172795 0.546388126,1.77123839 0.546388126,3.27703677 C0.546388126,4.78283515 1.77193671,6.00790075 3.27832876,6.00790075 M3.27832876,6.55407354 C1.46776244,6.55407354 0,5.08688941 0,3.27703677 C0,1.467184 1.46776244,0 3.27832876,0 C5.08889494,0 6.55665751,1.467184 6.55665751,3.27703677 C6.55665751,5.08688941 5.08889494,6.55407354 3.27832876,6.55407354 Z" id="Shape" fill="#FFFFFF" fill-rule="nonzero"></path>
                            </g>
                            <g id="Oval-11" transform="translate(8.188172, 0.000000)">
                                <path d="M3.27832876,6.55407354 C5.08889974,6.55407354 6.55665751,5.0868942 6.55665751,3.27703677 C6.55665751,1.46717934 5.08889974,0 3.27832876,0 C1.46775778,0 0,1.46717934 0,3.27703677 C0,5.0868942 1.46775778,6.55407354 3.27832876,6.55407354 Z" id="Path"></path>
                                <path d="M3.27832876,6.00790075 C4.7847208,6.00790075 6.01026939,4.78283515 6.01026939,3.27703677 C6.01026939,1.77123839 4.7847208,0.546172795 3.27832876,0.546172795 C1.77193671,0.546172795 0.546388126,1.77123839 0.546388126,3.27703677 C0.546388126,4.78283515 1.77193671,6.00790075 3.27832876,6.00790075 M3.27832876,6.55407354 C1.46776244,6.55407354 0,5.08688941 0,3.27703677 C0,1.467184 1.46776244,0 3.27832876,0 C5.08889494,0 6.55665751,1.467184 6.55665751,3.27703677 C6.55665751,5.08688941 5.08889494,6.55407354 3.27832876,6.55407354 Z" id="Shape" fill="#FFFFFF" fill-rule="nonzero"></path>
                            </g>
                            <path d="M7.46780097,2.2489041 C7.98410452,2.32237986 8.46175581,2.56411445 8.82672297,2.93664111 C9.01495511,3.12877207 9.01179981,3.43712249 8.8196754,3.62536106 C8.62755098,3.81359962 8.31921107,3.81044421 8.13097892,3.61831325 C7.91601358,3.39889537 7.63467739,3.2565139 7.46780097,3.21323675 C7.16369863,3.2565139 6.88236243,3.39889537 6.66739709,3.61831325 C6.47916494,3.81044421 6.17082503,3.81359962 5.97870062,3.62536106 C5.7865762,3.43712249 5.7834209,3.12877207 5.97165304,2.93664111 C6.33662021,2.56411445 6.81427149,2.32237986 7.46780097,2.2489041 Z" id="Path_91" fill="#FFFFFF" fill-rule="nonzero"></path>
                            <path d="M24.006352,1.0667034 C24.2721901,1.02579677 24.5208547,1.20814709 24.56176,1.47399425 C24.5958476,1.69553355 24.4749011,1.9051464 24.2797972,1.9925363 L24.154483,2.02942112 L14.6735562,3.48832714 C14.4077181,3.52923378 14.1590535,3.34688345 14.1181483,3.0810363 C14.0840606,2.859497 14.2050072,2.64988415 14.400111,2.56249424 L14.5254252,2.52560943 L24.006352,1.0667034 Z" id="Path_105" fill="#FFFFFF" fill-rule="nonzero"></path>
                            <line x1="0.338760638" y1="3.27703677" x2="0.869849897" y2="3.27703677" id="Path_106" stroke="#FFFFFF" stroke-width="0.846288043"></line>
                        </g>
                        <path d="M11.4005293,24.2382654 C11.5862494,24.3185838 11.6714265,24.5336338 11.5907777,24.718593 C11.2145476,25.581435 10.7462792,26.4015024 10.1794383,27.1835169 C9.94970937,27.4609033 9.90579476,27.8899212 10.0581514,28.1875195 C10.2016781,28.4678704 10.4706117,28.5515961 10.8953775,28.3489259 C11.0779778,28.2618011 11.2969238,28.3385928 11.3844071,28.5204449 C11.4718904,28.7022971 11.3947828,28.920346 11.2121824,29.0074709 C10.4352293,29.3781816 9.73271534,29.1594714 9.40492835,28.5192048 C9.16146106,28.0436399 9.18248499,27.430523 9.44683347,26.9598853 L9.59918676,26.7377361 C10.1207047,26.0170275 10.5629243,25.2425785 10.9182256,24.4277343 C10.9827447,24.279767 11.1338467,24.1958835 11.2867954,24.2093719 L11.4005293,24.2382654 Z" id="Path_20" fill="#F1927E" fill-rule="nonzero"></path>
                    </g>
                    <path d="M151.507558,92.8732517 C150.687887,94.8050751 149.696787,96.659639 148.546134,98.4147209 L134.908286,125.445905 C133.741846,127.75827 131.111221,128.93392 128.609524,128.260879 L118.819341,125.630511 C118.502177,125.546749 118.239436,125.32499 118.103673,125.026472 C117.96791,124.727954 117.97349,124.384261 118.118872,124.090304 L135.7836,88.4361439 C136.297076,87.398881 137.530676,86.9418526 138.596406,87.3940462 L151.507558,92.8732517 Z" id="Path-10" fill="url(#linearGradient-15)" fill-rule="nonzero"></path>
                    <polygon id="Path_96" fill="url(#linearGradient-16)" fill-rule="nonzero" opacity="0.206" points="137.07089 92.5957959 134.519258 125.704791 138.0074 118.960649"></polygon>
                    <path d="M152.34681,85.5501669 L152.34681,135.154363 C149.236617,135.012893 146.158677,134.461969 143.192623,133.515845 C140.589284,132.738246 137.583413,131.056125 136.263329,128.682216 L135.879764,88.6087345 C135.843548,87.4240024 136.759003,86.4265103 137.942926,86.3606873 L152.34681,85.5501669 Z" id="Path_16" fill="url(#linearGradient-17)" fill-rule="nonzero"></path>
                    <polygon id="Path-11" fill="url(#linearGradient-18)" fill-rule="nonzero" points="152.345717 85.5501669 152.345717 117.049044 145.556298 102.026015 148.959203 99.1280226 144.244967 95.279689 151.966524 85.5731061"></polygon>
                    <path d="M162.84074,85.5578133 L162.84074,135.16201 C166.360318,135.01828 169.851193,134.465474 173.242877,133.514753 C176.477042,132.448782 179.480323,130.780949 182.094365,128.599197 L182.094365,86.4764759 L162.84074,85.5578133 Z" id="Path_16-2" fill="url(#linearGradient-19)" fill-rule="nonzero"></path>
                    <polygon id="Path-12" fill="url(#linearGradient-20)" fill-rule="nonzero" points="162.84074 85.9281184 170.225722 95.279689 165.73769 99.1367613 168.918762 102.026015 162.84074 115.360278"></polygon>
                    <polygon id="Path_90" fill="url(#linearGradient-21)" fill-rule="nonzero" opacity="0.206" points="178.333029 100.635459 178.333029 120.608999 149.729611 114.391367 145.67104 122.735795 163.46253 132.176938 182.095458 129.415489 182.095458 105.60017"></polygon>
                    <g id="Group_3" transform="translate(167.998429, 117.934989) rotate(180.000000) translate(-167.998429, -117.934989) translate(133.717180, 86.345276)" fill-rule="nonzero">
                        <path d="M4.76859665,7.92928788 C8.12544842,7.61207915 11.2685082,9.61600287 12.3961749,12.7924104 L12.6070807,13.3385832 C14.074315,17.3438504 18.0236083,31.4467602 24.4549608,55.6473126 C25.2796746,58.749067 23.5076473,61.9484516 20.4401009,62.896118 L20.112268,62.9867827 L20.112268,62.9867827 C16.8002964,63.8121277 13.418702,61.9141428 12.3994532,58.6578171 L1.81810077,24.899969 L4.76859665,7.92928788 Z" id="Path_4" fill="url(#linearGradient-22)" transform="translate(13.237527, 35.537912) rotate(180.000000) translate(-13.237527, -35.537912) "></path>
                        <g id="Group_4" transform="translate(34.281249, 24.659095) rotate(-61.001023) translate(-34.281249, -24.659095) translate(24.944134, -9.360693)">
                            <path d="M7.74223558,67.8559851 L13.1953196,68.0395771 L13.7594318,66.2244201 C14.2732883,64.6763472 14.7024733,63.1014648 15.0450827,61.5067605 L15.064761,61.3417462 C15.2637308,58.913523 19.0124528,55.1706496 18.6494969,54.1466869 C18.4075263,53.4655022 16.6583414,54.1434085 13.4019421,56.1804058 L13.1253522,54.8482708 C11.7959717,48.5413015 10.7056464,45.2544941 9.85437639,44.9878485 C8.9469867,44.7029894 8.88248551,47.3013267 9.6608728,52.7828604 L5.46501544,57.1978117 C4.91119093,57.780339 4.72184362,58.6196857 4.97196394,59.3834312 L7.74223558,67.8559851 Z" id="Path_5" fill="url(#linearGradient-23)" transform="translate(11.768817, 56.503159) rotate(180.000000) translate(-11.768817, -56.503159) "></path>
                            <path d="M8.74592467,0 L4.54747351e-13,0 L4.6495522,41.8283856 C4.83114572,43.4639902 5.65540474,44.9604604 6.94094551,45.9884877 C8.22648627,47.016515 9.86796768,47.4918598 11.5041707,47.3099192 C11.8627147,47.2708754 12.2171725,47.20067 12.5635208,47.1000997 C16.5379082,45.9368474 18.8964826,41.8571595 17.9203996,37.834166 L8.74592467,0 Z" id="Rectangle-33" fill="url(#linearGradient-24)" transform="translate(9.070199, 23.673986) rotate(180.000000) translate(-9.070199, -23.673986) "></path>
                        </g>
                    </g>
                    <g id="Group_2" transform="translate(90.008709, 89.739021) rotate(126.010525) translate(-90.008709, -89.739021) translate(26.278219, 24.788086)">
                        <g id="Group_32" transform="translate(63.730490, 64.950935) rotate(152.025270) translate(-63.730490, -64.950935) translate(17.623244, 15.896270)">
                            <path d="M25.7975748,60.7425244 L17.9464684,98.1093299 L10.4067839,98.1093299 L14.8409926,55.060498 C15.0958406,52.590896 17.3050477,50.7952779 19.7756615,51.0496558 C20.313057,51.1050275 20.8360765,51.2567285 21.3196577,51.4974895 C24.7427115,53.2018185 26.5830542,57.0013603 25.7975748,60.7425244 Z" id="Path_6" fill="url(#linearGradient-25)" fill-rule="nonzero" transform="translate(18.192119, 74.567486) rotate(180.000000) translate(-18.192119, -74.567486) "></path>
                            <path d="M28.7002805,32.3237162 C28.7002805,32.3237162 28.2631973,42.2055487 27.2906873,44.1858474 C26.3181772,46.1661461 19.2855091,54.0294502 18.4648855,52.9917868 C17.6442619,51.9541234 24.4529248,44.1858474 24.4529248,44.1858474 C24.4529248,44.1858474 26.7705583,38.9833308 24.0726625,38.9833308 C21.3747667,38.9833308 20.4995076,44.4163179 19.4122633,44.6249429 C18.3250189,44.8335679 18.1851523,42.7746252 18.7183937,40.3650615 C19.576475,37.616364 20.6235992,34.9302422 21.85228,32.3259008 L28.7002805,32.3237162 Z" id="Path_84" fill="url(#linearGradient-26)" fill-rule="nonzero" transform="translate(23.548264, 42.704697) rotate(180.000000) translate(-23.548264, -42.704697) "></path>
                            <g id="Group_29" transform="translate(46.107246, 46.106719) rotate(85.024285) translate(-46.107246, -46.106719) translate(3.532770, 3.531664)">
                                <g id="BCH" transform="translate(-0.000000, -0.000000)">
                                    <g id="Group" transform="translate(42.574476, 42.575055) rotate(-22.972721) translate(-42.574476, -42.575055) translate(10.099585, 10.099072)">
                                        <path d="M41.5243443,47.7826274 C34.711859,39.7143167 31.3056163,35.6205727 31.3056163,35.5013953 L31.3056163,35.5013953 L31.3056163,35.4656421 C32.811658,35.4656421 34.3882953,35.0663977 36.0355284,34.2679091 C36.9179747,33.9103769 37.8416018,33.1297648 38.8064098,31.926073 C39.5358987,30.7342989 39.935941,29.715332 40.0065367,28.8691724 L40.0065367,28.8691724 L43.1480455,28.8691724 C43.1665349,28.8691724 43.5118895,28.3615132 44.1841095,27.3461946 L44.5831913,26.7420381 L44.5831913,26.7420381 L44.8070445,26.4022001 C44.8070445,26.3664468 44.7776297,26.3426114 44.7187999,26.3306936 L44.7187999,26.3306936 L39.8829942,26.3306936 C39.6594412,25.2700147 39.235867,24.3702252 38.6122716,23.6313253 L38.6122716,23.6313253 L43.1480455,23.6313253 C43.277471,23.5240656 43.8422366,22.6898237 44.8423424,21.1285997 L44.8423424,21.1285997 L44.8423424,21.0928465 L27.8640758,21.0928465 C27.8287779,21.0928465 27.2698953,21.9092117 26.1874278,23.5419422 L26.1874278,23.5419422 L26.1874278,23.6313253 L30.670255,23.6313253 C31.4232758,23.6313253 32.2704242,23.7862559 33.2117003,24.0961172 C34.5294867,24.6204978 35.417816,25.3534389 35.8766881,26.2949404 L35.8766881,26.2949404 L35.8766881,26.3306936 L27.8640758,26.3306936 C27.8405439,26.3306936 27.2698953,27.1530177 26.15213,28.797666 C26.15213,28.845337 26.1756619,28.8691724 26.2227257,28.8691724 L26.2227257,28.8691724 L36.3179112,28.8691724 C36.3179112,29.2505402 36.2473155,29.6199901 36.1061241,29.9775223 C35.2001459,32.4206592 32.8881366,33.6422277 29.1700963,33.6422277 C28.3817776,33.6422277 27.6934695,33.6005156 27.105172,33.5170914 L27.105172,33.5170914 L27.0698741,33.6064745 L27.0698741,35.9840638 C27.0698741,36.019817 30.3878722,39.9526715 37.0238683,47.7826274 L37.0238683,47.7826274 L41.5243443,47.7826274 Z" id="`" fill="url(#linearGradient-27)" fill-rule="nonzero"></path>
                                        <g id="Group-10" transform="translate(32.474891, 32.475983) rotate(20.000000) translate(-32.474891, -32.475983) translate(7.138274, 7.137538)">
                                            <path d="M49.7762148,30.5338703 C49.6536568,31.1533936 49.5310988,31.6497981 49.407237,32.2693213 C49.2846791,32.764416 49.1621211,33.2608205 48.9170052,33.757225 C48.6705854,34.5011768 48.4254695,35.2451287 48.0564917,35.8646519 C47.9339338,36.2366279 47.6888178,36.6086038 47.5649561,36.9792699 C46.9508624,38.2196262 46.0916528,39.4586728 45.3550012,40.5746005 C44.9860234,41.0696952 44.6183495,41.4416711 44.3732336,41.9380756 C42.2845329,44.4174785 39.5830423,46.5249054 36.7589937,48.0114993 C36.267458,48.2603564 35.6533644,48.5079038 35.1618287,48.7554511 C34.1800611,49.1274271 33.3195477,49.499403 32.3377801,49.7469503 C31.8462444,49.8713789 31.2321508,49.9958074 30.7406151,50.1189262 C27.4250308,50.8628781 23.8643306,50.8628781 20.4248846,50.1189262 C6.91612787,47.2688572 -1.80243755,33.8803438 1.021611,20.1211642 C3.84565956,6.48641316 17.1093004,-2.31396073 30.7406151,0.536108264 C35.5308064,1.52891723 39.95202,3.88258174 43.3901622,7.47791234 C48.9170052,13.551336 51.4959378,22.2285911 49.7762148,30.5338703 Z" id="Path" fill="url(#linearGradient-28)" fill-rule="nonzero"></path>
                                            <path d="M47.4423981,13.6757646 C47.3198401,13.4282172 47.1972821,13.1806699 46.9508624,12.808694 C45.8465368,10.8243858 44.4944877,9.0889348 42.8986265,7.47791234 C39.4604843,4.0070103 35.0392707,1.65203601 30.2490794,0.536108264 C16.7403226,-2.31396073 3.35412387,6.48641316 0.530075314,20.1211642 C-1.31220567,29.1703952 1.75826264,37.9720789 8.02175722,43.7979552 C11.2147835,46.7724528 15.2670194,49.0043083 19.9333489,49.9958074 C23.4953529,50.7384495 26.9334951,50.7384495 30.2490794,49.9958074 C30.7406151,49.8713789 31.3547087,49.7469503 31.8462444,49.6225218 C32.828012,49.3749744 33.8110834,49.0029985 34.670293,48.6323323 C35.2843866,48.3834752 35.7759223,48.1359279 36.267458,47.8883805 C39.2140645,46.4004768 41.7929972,44.4174785 43.8816979,41.8136471 C44.2493718,41.4416711 44.6183495,40.9465764 44.8634655,40.450172 C45.7226751,39.3342442 46.4606305,38.0951977 47.0747242,36.8561511 C47.1972821,36.4841752 47.4423981,36.1121993 47.5649561,35.7402234 C47.9339338,34.9962715 48.1790497,34.3767483 48.4254695,33.6327964 C48.5480274,33.2608205 48.6705854,33.0132732 48.7931434,32.6412972 C48.7931434,32.5168687 48.9157013,32.3937499 48.9157013,32.1462025 C49.0395631,31.5253695 49.1621211,31.028965 49.2846791,30.4094417 C51.0044021,24.707994 50.1438887,18.7576891 47.4423981,13.6757646 Z M43.6352781,33.8803438 C43.5127202,34.1292009 43.3901622,34.4998671 43.2676042,34.7487242 C42.7760685,35.7402234 42.1619749,36.7317226 41.4253232,37.7232217 C41.1789035,38.0951977 40.9337876,38.4671736 40.5648098,38.8391495 C38.8463906,40.8221479 36.7576899,42.5575989 34.425177,43.6735266 C34.0561993,43.921074 33.5646636,44.0455026 33.0744317,44.2930499 C32.3364763,44.6650258 31.5998247,44.9125732 30.7406151,45.0370017 C27.6701468,45.9053821 24.3545625,46.1529295 21.0389783,45.4089777 C10.1091541,43.0540034 3.10900793,32.2693213 5.32026663,21.2370919 C7.53022153,10.2048626 18.3374877,3.13993968 29.2673118,5.37048541 C33.0744317,6.2388658 36.6351319,8.09743561 39.4604843,10.9488144 C41.0563455,12.5598368 42.4070908,14.4197164 43.3901622,16.4027148 C43.5127202,16.6502622 43.6352781,17.0235478 43.7578361,17.2710952 C45.3550012,20.9895446 45.8465368,25.0799699 45.1085814,29.1703952 C45.1085814,29.293514 45.1098852,29.4179426 44.9860234,29.5423711 C44.9860234,29.6667997 44.8634655,29.914347 44.8634655,30.0387756 C44.6183495,31.4022507 44.2493718,32.6412972 43.6352781,33.8803438 Z" id="Shape" fill="url(#linearGradient-29)" fill-rule="nonzero"></path>
                                            <path d="M29.2673118,6.11443724 C30.7406151,6.36329437 32.0913604,6.85838907 33.4421057,7.47791234 C33.6885254,7.60234091 34.0561993,7.72676947 34.3026191,7.84988826 C35.2843866,8.34629274 36.267458,8.96581601 37.1266676,9.58533928 C37.4956453,9.83288663 37.8633193,10.0817438 38.109739,10.4537197 C40.074578,12.1891707 41.6704392,14.1721691 42.7760685,16.5271434 C43.0211845,16.8991193 43.1450463,17.3955238 43.3901622,17.7661899 C43.6352781,18.5101417 44.0042559,19.2540936 44.1268138,19.9980454 C44.9860234,22.972543 45.1098852,26.1958976 44.4957916,29.4192523 C42.2845329,40.0795058 31.9688024,46.8968813 21.407956,44.7894544 C10.8458058,42.5575989 4.09207931,32.1462025 6.17947624,21.4859491 C6.91612787,17.7661899 8.75840885,14.2965976 11.4598994,11.5683377 C16.003671,6.73527029 22.7587013,4.75096214 29.2673118,6.11443724 Z" id="Path" stroke="url(#linearGradient-30)" stroke-width="1.01088322"></path>
                                            <path d="M50.6732348,32.8822957 C50.5506768,33.3787002 50.4281189,33.8751047 50.1816991,34.3701994 C49.9365832,35.1141512 49.6914672,35.8581031 49.3224895,36.4776263 C49.1999315,36.8496022 48.9535118,37.2215782 48.8309538,37.5935541 C48.2168602,38.8326006 47.3576505,40.0716472 46.6209989,41.1875749 C46.2520212,41.6839794 45.8843473,42.0559553 45.6379275,42.55105 C43.5505306,45.0304529 40.84904,47.1378798 38.0236877,48.6257835 C37.5334558,48.8733308 36.9193621,49.1208782 36.4278264,49.3684255 C35.444755,49.7404014 37.1931618,48.802603 36.2100905,49.0514601 C35.7198586,49.1745789 35.1057649,49.2990075 34.6142292,49.4234361 L18.5652063,31.5893631 L21.9359983,31.8907965 L22.550092,30.5273214 L19.3674091,27.3553403 C19.3674091,27.3553403 26.9174843,21.7776013 26.6723684,21.5300539 C26.5485066,21.4056254 29.4850478,11.6862173 29.4850478,11.6862173 L32.1154249,13.5568838 L35.2778676,11.6862173 L50.6732348,32.8822957 Z" id="Path" fill="url(#linearGradient-31)" fill-rule="nonzero"></path>
                                            <path d="M31.5745106,40.5012532 C23.9708095,31.7904788 20.168959,27.3707579 20.168959,27.2420907 L20.168959,27.2420907 L20.168959,27.2034905 C21.8499154,27.2034905 23.6096666,26.7724551 25.4482126,25.9103844 C26.433148,25.5243826 27.464047,24.6816119 28.5409097,23.3820725 C29.3551229,22.0953997 29.8016269,20.9952946 29.8804218,20.0817569 L29.8804218,20.0817569 L33.3867917,20.0817569 C33.4130566,20.0817569 34.0302828,19.1939527 35.2384702,17.4183444 C35.2384702,17.3797442 35.205639,17.3540107 35.1399766,17.341144 L35.1399766,17.341144 L29.7425308,17.341144 C29.4930138,16.1960053 29.0202449,15.2245674 28.3242239,14.4268303 L28.3242239,14.4268303 L33.3867917,14.4268303 C33.5312489,14.3110297 34.1616075,13.4103588 35.2778676,11.7248175 L35.2778676,11.7248175 L35.2778676,11.6862173 L16.327711,11.6862173 C16.2883136,11.6862173 15.6645212,12.5675882 14.4563338,14.3303298 L14.4563338,14.3303298 L14.4563338,14.4268303 L19.4598055,14.4268303 C20.3002837,14.4268303 21.2458217,14.5940977 22.2964194,14.9286326 C23.7672562,15.4947686 24.7587578,16.2860724 25.2709242,17.3025438 L25.2709242,17.3025438 L25.2709242,17.341144 L16.327711,17.341144 C16.3014461,17.341144 15.6645212,18.2289482 14.4169364,20.0045566 C14.4169364,20.0560235 14.4432014,20.0817569 14.4957313,20.0817569 L14.4957313,20.0817569 L25.7633919,20.0817569 C25.7633919,20.4934922 25.6845971,20.8923607 25.5270074,21.2783626 C24.5158071,23.9160417 21.9352764,25.2348812 17.7854154,25.2348812 C16.9055398,25.2348812 16.1372902,25.1898477 15.4806666,25.0997806 L15.4806666,25.0997806 L15.4412692,25.196281 L15.4412692,27.7631931 C15.4412692,27.8017933 19.1446262,32.0478133 26.5513402,40.5012532 L26.5513402,40.5012532 L31.5745106,40.5012532 Z" id="`" fill="url(#linearGradient-32)" fill-rule="nonzero"></path>
                                        </g>
                                    </g>
                                </g>
                            </g>
                            <path d="M23.3440116,49.6823989 C21.8907101,51.1394967 19.0168883,52.6839768 18.6180499,52.0133186 C18.2192115,51.3426603 22.1540527,47.4869215 22.1540527,47.4869215 L25.8495908,40.8371375 L27.0209737,33.2632869 L30.2717797,33.3310081 C30.0585798,36.5232026 29.6686139,39.701138 29.103675,42.8502045 C28.4480502,45.4115947 24.7984058,48.2242087 23.3440116,49.6823989 Z" id="Path_85" fill="url(#linearGradient-33)" fill-rule="nonzero" transform="translate(24.430718, 42.719003) rotate(180.000000) translate(-24.430718, -42.719003) "></path>
                        </g>
                    </g>
                    <path d="M144.400141,347.516486 C148.215023,348.422041 158.543944,345.979556 158.543944,345.979556 L159.131857,352.609001 L127.432604,352.609001 C127.432604,352.609001 129.057562,346.417587 133.910582,345.979556 C138.763601,345.541526 140.586352,346.616394 144.400141,347.516486 Z" id="Path_11-2" fill="url(#linearGradient-34)" fill-rule="nonzero"></path>
                    <path d="M200.246471,346.654626 C209.097959,343.898638 210.955678,353.031739 210.955678,353.031739 L185.997762,353.031739 L185.617475,348.18391 C185.617475,348.18391 194.452571,348.460273 200.246471,346.654626 Z" id="Path_12" fill="url(#linearGradient-35)" fill-rule="nonzero"></path>
                </g>
            </g>
        </g>
    </g>
</svg>